# xmcd
#
# Track frame offsets:
#	150
#	18692
#	36192
#	55858
#	72065
#	89969
#	107633
#	122395
#	143617
#	161484
#	177431
#	191554
#	216477
#
# Disc length: 2980 seconds
#
# Revision: 0
# Processed by: cddbd v1.5.2PL0 Copyright (c) Steve Scherf et al.
# Submitted via: EZCDAudioConverter 7.0.8.1
#
DISCID=bb0ba20d
DTITLE=Lawson Bates - What Country Means to Me
DYEAR=2017
DGENRE=Country
TTITLE0=Love's the Reason
TTITLE1=What Country Means to Me
TTITLE2=Time
TTITLE3=I'll Love Again
TTITLE4=If That Hadn't Been There
TTITLE5=Past the Past
TTITLE6=The Way You Look Tonight
TTITLE7=I Will Always
TTITLE8=You Asked Him to Leave
TTITLE9=Smaller Plans
TTITLE10=You've Got To Stand for Something
TTITLE11=I Have Decided
TTITLE12=Jesus Loves Me
EXTD=
EXTT0=
EXTT1=
EXTT2=
EXTT3=
EXTT4=
EXTT5=
EXTT6=
EXTT7=
EXTT8=
EXTT9=
EXTT10=
EXTT11=
EXTT12=
PLAYORDER=
